<svg width="48" height="51" viewBox="0 0 48 51" fill="none" xmlns="http://www.w3.org/2000/svg">
<g filter="url(#filter0_dd_55_39)">
<path d="M4 18.7763L22.1824 1.91524C23.3435 0.838516 25.1415 0.849627 26.2892 1.94062L44 18.7763L22.7759 39.5044L4 18.7763Z" fill="url(#paint0_linear_55_39)"/>
<g filter="url(#filter1_bdi_55_39)">
<path d="M6.0423 8.47629C6.0423 7.37172 6.93773 6.47629 8.0423 6.47629H39.9577C41.0623 6.47629 41.9577 7.37172 41.9577 8.47629V32.7628C41.9577 33.8674 41.0623 34.7628 39.9577 34.7628H8.0423C6.93773 34.7628 6.0423 33.8674 6.0423 32.7628V8.47629Z" fill="#BCE4F1" fill-opacity="0.5" shape-rendering="crispEdges"/>
</g>
<rect x="13.1915" y="12.7981" width="21.5132" height="3.03448" rx="1.51724" fill="white"/>
<rect x="18.2534" y="20.3843" width="11.3893" height="3.03448" rx="1.51724" fill="white"/>
<path d="M44 18.7763L20.5806 32.9344L41.1096 42.6343C42.4528 43.269 44 42.2901 44 40.8055V18.7763Z" fill="url(#paint1_linear_55_39)"/>
<path d="M4 18.7763L27.4194 32.9344L6.85442 42.6513C5.52768 43.2782 4 42.3104 4 40.843V18.7763Z" fill="url(#paint2_linear_55_39)"/>
<path d="M29.3601 30.3591C27.8425 29.3601 26.065 28.8276 24.2476 28.8276C22.4302 28.8276 20.6526 29.3601 19.135 30.3591L5.58951 39.2763C3.91193 40.3806 4.69454 42.9885 6.70353 42.9885H41.7917C43.8007 42.9885 44.5833 40.3806 42.9057 39.2763L29.3601 30.3591Z" fill="url(#paint3_linear_55_39)"/>
</g>
<defs>
<filter id="filter0_dd_55_39" x="0" y="1.11497" width="48" height="49.8736" filterUnits="userSpaceOnUse" color-interpolation-filters="sRGB">
<feFlood flood-opacity="0" result="BackgroundImageFix"/>
<feColorMatrix in="SourceAlpha" type="matrix" values="0 0 0 0 0 0 0 0 0 0 0 0 0 0 0 0 0 0 127 0" result="hardAlpha"/>
<feOffset dy="4"/>
<feGaussianBlur stdDeviation="2"/>
<feComposite in2="hardAlpha" operator="out"/>
<feColorMatrix type="matrix" values="0 0 0 0 0 0 0 0 0 0 0 0 0 0 0 0 0 0 0.25 0"/>
<feBlend mode="normal" in2="BackgroundImageFix" result="effect1_dropShadow_55_39"/>
<feColorMatrix in="SourceAlpha" type="matrix" values="0 0 0 0 0 0 0 0 0 0 0 0 0 0 0 0 0 0 127 0" result="hardAlpha"/>
<feOffset dy="4"/>
<feGaussianBlur stdDeviation="2"/>
<feComposite in2="hardAlpha" operator="out"/>
<feColorMatrix type="matrix" values="0 0 0 0 0 0 0 0 0 0 0 0 0 0 0 0 0 0 0.25 0"/>
<feBlend mode="normal" in2="effect1_dropShadow_55_39" result="effect2_dropShadow_55_39"/>
<feBlend mode="normal" in="SourceGraphic" in2="effect2_dropShadow_55_39" result="shape"/>
</filter>
<filter id="filter1_bdi_55_39" x="2.0423" y="2.47629" width="43.9154" height="40.2866" filterUnits="userSpaceOnUse" color-interpolation-filters="sRGB">
<feFlood flood-opacity="0" result="BackgroundImageFix"/>
<feGaussianBlur in="BackgroundImageFix" stdDeviation="2"/>
<feComposite in2="SourceAlpha" operator="in" result="effect1_backgroundBlur_55_39"/>
<feColorMatrix in="SourceAlpha" type="matrix" values="0 0 0 0 0 0 0 0 0 0 0 0 0 0 0 0 0 0 127 0" result="hardAlpha"/>
<feOffset dy="4"/>
<feGaussianBlur stdDeviation="2"/>
<feComposite in2="hardAlpha" operator="out"/>
<feColorMatrix type="matrix" values="0 0 0 0 0 0 0 0 0 0 0 0 0 0 0 0 0 0 0.25 0"/>
<feBlend mode="normal" in2="effect1_backgroundBlur_55_39" result="effect2_dropShadow_55_39"/>
<feBlend mode="normal" in="SourceGraphic" in2="effect2_dropShadow_55_39" result="shape"/>
<feColorMatrix in="SourceAlpha" type="matrix" values="0 0 0 0 0 0 0 0 0 0 0 0 0 0 0 0 0 0 127 0" result="hardAlpha"/>
<feOffset dx="0.2" dy="0.1"/>
<feGaussianBlur stdDeviation="0.5"/>
<feComposite in2="hardAlpha" operator="arithmetic" k2="-1" k3="1"/>
<feColorMatrix type="matrix" values="0 0 0 0 1 0 0 0 0 1 0 0 0 0 1 0 0 0 0.6 0"/>
<feBlend mode="normal" in2="shape" result="effect3_innerShadow_55_39"/>
</filter>
<linearGradient id="paint0_linear_55_39" x1="6.71186" y1="12.0522" x2="42.297" y2="8.62061" gradientUnits="userSpaceOnUse">
<stop stop-color="#2BCCFF"/>
<stop offset="1" stop-color="#9CA0FF"/>
</linearGradient>
<linearGradient id="paint1_linear_55_39" x1="22.1684" y1="26.115" x2="43.0174" y2="24.1818" gradientUnits="userSpaceOnUse">
<stop stop-color="#2BCCFF"/>
<stop offset="1" stop-color="#9CA0FF"/>
</linearGradient>
<linearGradient id="paint2_linear_55_39" x1="5.58775" y1="26.4717" x2="26.4529" y2="24.6267" gradientUnits="userSpaceOnUse">
<stop stop-color="#2BCCFF"/>
<stop offset="1" stop-color="#9CA0FF"/>
</linearGradient>
<linearGradient id="paint3_linear_55_39" x1="7.32896" y1="33.1479" x2="40.1992" y2="24.4942" gradientUnits="userSpaceOnUse">
<stop stop-color="#2BCCFF"/>
<stop offset="1" stop-color="#9CA0FF"/>
</linearGradient>
</defs>
</svg>
