<svg width="44" height="44" viewBox="0 0 44 44" fill="none" xmlns="http://www.w3.org/2000/svg">
<path d="M22 44C33.0457 44 42 35.0821 42 24.0813C42 13.0805 33.0457 4.1626 22 4.1626C10.9543 4.1626 2 13.0805 2 24.0813C2 35.0821 10.9543 44 22 44Z" fill="url(#paint0_linear_44_116)"/>
<g filter="url(#filter0_bdi_44_116)">
<path d="M32.6122 0H11.3877C7.78095 0 4.85712 2.91195 4.85712 6.50406V22.0463C4.85712 25.6384 7.78095 28.5503 11.3877 28.5503H14.8619C15.9856 28.5503 17.0303 29.1258 17.6276 30.0737L19.2343 32.6231C20.5142 34.6541 23.4858 34.6541 24.7657 32.6231L26.3723 30.0737C26.9696 29.1258 28.0143 28.5503 29.138 28.5503H32.6122C36.219 28.5503 39.1428 25.6384 39.1428 22.0463V6.50406C39.1428 2.91195 36.219 0 32.6122 0Z" fill="#BCE4F1" fill-opacity="0.5" shape-rendering="crispEdges"/>
</g>
<path d="M27.9055 14.758C28.602 14.758 29.1666 14.1957 29.1666 13.5021C29.1666 12.8084 28.602 12.2462 27.9055 12.2462H26.6397L27.2998 9.92339C27.4894 9.25599 27.0999 8.56186 26.4298 8.37292C25.7599 8.18421 25.0627 8.57195 24.8731 9.23941L24.0187 12.2462H21.5686L22.2287 9.92339C22.4183 9.25599 22.0288 8.56186 21.3587 8.37292C20.6888 8.18421 19.9916 8.57195 19.802 9.23941L18.9476 12.2462H16.9726C16.2761 12.2462 15.7115 12.8084 15.7115 13.5021C15.7115 14.1957 16.2761 14.758 16.9726 14.758H18.2338L17.7686 16.3949H15.7998C15.1033 16.3949 14.5388 16.9572 14.5388 17.6508C14.5388 18.3444 15.1033 18.9067 15.7998 18.9067H17.0549L16.376 21.296C16.1863 21.9634 16.5758 22.6576 17.2459 22.8465C17.3607 22.8788 17.4763 22.8943 17.59 22.8943C18.1399 22.8943 18.6455 22.5331 18.8027 21.98L19.676 18.9067H22.1261L21.4471 21.296C21.2574 21.9634 21.6469 22.6576 22.3171 22.8465C22.4318 22.8788 22.5474 22.8943 22.6611 22.8943C23.211 22.8943 23.7167 22.5331 23.8738 21.98L24.7471 18.9067H26.7328C27.4293 18.9067 27.9939 18.3444 27.9939 17.6508C27.9939 16.9572 27.4293 16.3949 26.7328 16.3949H25.4609L25.926 14.758H27.9055ZM22.8397 16.395H20.3897L20.8548 14.758H23.3049L22.8397 16.395Z" fill="white"/>
<defs>
<filter id="filter0_bdi_44_116" x="0.857117" y="-4" width="42.2857" height="46.1464" filterUnits="userSpaceOnUse" color-interpolation-filters="sRGB">
<feFlood flood-opacity="0" result="BackgroundImageFix"/>
<feGaussianBlur in="BackgroundImageFix" stdDeviation="2"/>
<feComposite in2="SourceAlpha" operator="in" result="effect1_backgroundBlur_44_116"/>
<feColorMatrix in="SourceAlpha" type="matrix" values="0 0 0 0 0 0 0 0 0 0 0 0 0 0 0 0 0 0 127 0" result="hardAlpha"/>
<feOffset dy="4"/>
<feGaussianBlur stdDeviation="2"/>
<feComposite in2="hardAlpha" operator="out"/>
<feColorMatrix type="matrix" values="0 0 0 0 0 0 0 0 0 0 0 0 0 0 0 0 0 0 0.25 0"/>
<feBlend mode="normal" in2="effect1_backgroundBlur_44_116" result="effect2_dropShadow_44_116"/>
<feBlend mode="normal" in="SourceGraphic" in2="effect2_dropShadow_44_116" result="shape"/>
<feColorMatrix in="SourceAlpha" type="matrix" values="0 0 0 0 0 0 0 0 0 0 0 0 0 0 0 0 0 0 127 0" result="hardAlpha"/>
<feOffset dx="0.2" dy="0.1"/>
<feGaussianBlur stdDeviation="0.5"/>
<feComposite in2="hardAlpha" operator="arithmetic" k2="-1" k3="1"/>
<feColorMatrix type="matrix" values="0 0 0 0 1 0 0 0 0 1 0 0 0 0 1 0 0 0 0.6 0"/>
<feBlend mode="normal" in2="shape" result="effect3_innerShadow_44_116"/>
</filter>
<linearGradient id="paint0_linear_44_116" x1="4.71186" y1="16.3164" x2="40.3025" y2="12.913" gradientUnits="userSpaceOnUse">
<stop stop-color="#2BCCFF"/>
<stop offset="1" stop-color="#9CA0FF"/>
</linearGradient>
</defs>
</svg>
