<svg width="58" height="41" viewBox="0 0 58 41" fill="none" xmlns="http://www.w3.org/2000/svg">
<g filter="url(#filter0_dd_5_27)">
<path d="M11 4.61594C11 2.25983 13.0262 0.414106 15.3721 0.633288L29.6329 1.96571C29.8771 1.98852 30.1229 1.98883 30.3672 1.96663L42.2228 0.888836C44.5343 0.678704 46.5387 2.47347 46.5842 4.79399L46.9449 23.1894C46.978 24.8757 45.9497 26.4016 44.3742 27.004L31.3529 31.9827C30.4787 32.317 29.5151 32.3341 28.6296 32.0312L13.7052 26.9255C12.0872 26.3719 11 24.851 11 23.1408L11 4.61594Z" fill="url(#paint0_linear_5_27)"/>
<g filter="url(#filter1_bdi_5_27)">
<path d="M9.6126 0L30 2L22.5313 14.3457C22.1276 14.9273 21.5221 15.1212 20.9165 14.9273L4.76807 10.4685C4.16251 10.2746 3.7588 9.49919 4.16251 8.72375L8.40147 0.775444C8.60333 0.193861 9.00704 0 9.6126 0Z" fill="#BCE4F1" fill-opacity="0.5" shape-rendering="crispEdges"/>
</g>
<g filter="url(#filter2_bdi_5_27)">
<path d="M53.0243 9.7706L38.1699 13.9321C37.6129 14.1131 37.0558 13.9321 36.8702 13.3893L30 2L48.7537 0C49.3107 0 49.6821 0.180937 50.0534 0.723748L53.9527 8.14217C54.1384 8.86591 53.767 9.58966 53.0243 9.7706Z" fill="#BCE4F1" fill-opacity="0.5" shape-rendering="crispEdges"/>
</g>
</g>
<defs>
<filter id="filter0_dd_5_27" x="0" y="0" width="58" height="40.2465" filterUnits="userSpaceOnUse" color-interpolation-filters="sRGB">
<feFlood flood-opacity="0" result="BackgroundImageFix"/>
<feColorMatrix in="SourceAlpha" type="matrix" values="0 0 0 0 0 0 0 0 0 0 0 0 0 0 0 0 0 0 127 0" result="hardAlpha"/>
<feOffset dy="4"/>
<feGaussianBlur stdDeviation="2"/>
<feComposite in2="hardAlpha" operator="out"/>
<feColorMatrix type="matrix" values="0 0 0 0 0 0 0 0 0 0 0 0 0 0 0 0 0 0 0.25 0"/>
<feBlend mode="normal" in2="BackgroundImageFix" result="effect1_dropShadow_5_27"/>
<feColorMatrix in="SourceAlpha" type="matrix" values="0 0 0 0 0 0 0 0 0 0 0 0 0 0 0 0 0 0 127 0" result="hardAlpha"/>
<feOffset dy="4"/>
<feGaussianBlur stdDeviation="2"/>
<feComposite in2="hardAlpha" operator="out"/>
<feColorMatrix type="matrix" values="0 0 0 0 0 0 0 0 0 0 0 0 0 0 0 0 0 0 0.25 0"/>
<feBlend mode="normal" in2="effect1_dropShadow_5_27" result="effect2_dropShadow_5_27"/>
<feBlend mode="normal" in="SourceGraphic" in2="effect2_dropShadow_5_27" result="shape"/>
</filter>
<filter id="filter1_bdi_5_27" x="0" y="-4" width="34" height="27" filterUnits="userSpaceOnUse" color-interpolation-filters="sRGB">
<feFlood flood-opacity="0" result="BackgroundImageFix"/>
<feGaussianBlur in="BackgroundImageFix" stdDeviation="2"/>
<feComposite in2="SourceAlpha" operator="in" result="effect1_backgroundBlur_5_27"/>
<feColorMatrix in="SourceAlpha" type="matrix" values="0 0 0 0 0 0 0 0 0 0 0 0 0 0 0 0 0 0 127 0" result="hardAlpha"/>
<feOffset dy="4"/>
<feGaussianBlur stdDeviation="2"/>
<feComposite in2="hardAlpha" operator="out"/>
<feColorMatrix type="matrix" values="0 0 0 0 0 0 0 0 0 0 0 0 0 0 0 0 0 0 0.25 0"/>
<feBlend mode="normal" in2="effect1_backgroundBlur_5_27" result="effect2_dropShadow_5_27"/>
<feBlend mode="normal" in="SourceGraphic" in2="effect2_dropShadow_5_27" result="shape"/>
<feColorMatrix in="SourceAlpha" type="matrix" values="0 0 0 0 0 0 0 0 0 0 0 0 0 0 0 0 0 0 127 0" result="hardAlpha"/>
<feOffset dx="0.2" dy="0.1"/>
<feGaussianBlur stdDeviation="0.5"/>
<feComposite in2="hardAlpha" operator="arithmetic" k2="-1" k3="1"/>
<feColorMatrix type="matrix" values="0 0 0 0 1 0 0 0 0 1 0 0 0 0 1 0 0 0 0.6 0"/>
<feBlend mode="normal" in2="shape" result="effect3_innerShadow_5_27"/>
</filter>
<filter id="filter2_bdi_5_27" x="26" y="-4" width="32" height="26" filterUnits="userSpaceOnUse" color-interpolation-filters="sRGB">
<feFlood flood-opacity="0" result="BackgroundImageFix"/>
<feGaussianBlur in="BackgroundImageFix" stdDeviation="2"/>
<feComposite in2="SourceAlpha" operator="in" result="effect1_backgroundBlur_5_27"/>
<feColorMatrix in="SourceAlpha" type="matrix" values="0 0 0 0 0 0 0 0 0 0 0 0 0 0 0 0 0 0 127 0" result="hardAlpha"/>
<feOffset dy="4"/>
<feGaussianBlur stdDeviation="2"/>
<feComposite in2="hardAlpha" operator="out"/>
<feColorMatrix type="matrix" values="0 0 0 0 0 0 0 0 0 0 0 0 0 0 0 0 0 0 0.25 0"/>
<feBlend mode="normal" in2="effect1_backgroundBlur_5_27" result="effect2_dropShadow_5_27"/>
<feBlend mode="normal" in="SourceGraphic" in2="effect2_dropShadow_5_27" result="shape"/>
<feColorMatrix in="SourceAlpha" type="matrix" values="0 0 0 0 0 0 0 0 0 0 0 0 0 0 0 0 0 0 127 0" result="hardAlpha"/>
<feOffset dx="0.2" dy="0.1"/>
<feGaussianBlur stdDeviation="0.5"/>
<feComposite in2="hardAlpha" operator="arithmetic" k2="-1" k3="1"/>
<feColorMatrix type="matrix" values="0 0 0 0 1 0 0 0 0 1 0 0 0 0 1 0 0 0 0.6 0"/>
<feBlend mode="normal" in2="shape" result="effect3_innerShadow_5_27"/>
</filter>
<linearGradient id="paint0_linear_5_27" x1="13.4407" y1="10.0715" x2="45.4044" y2="6.67598" gradientUnits="userSpaceOnUse">
<stop stop-color="#2BCCFF"/>
<stop offset="1" stop-color="#9CA0FF"/>
</linearGradient>
</defs>
</svg>
