<svg width="73" height="68" viewBox="0 0 73 68" fill="none" xmlns="http://www.w3.org/2000/svg">
<g filter="url(#filter0_dd_76_159)">
<rect x="17" y="18" width="36.8372" height="32" rx="5" fill="url(#paint0_linear_76_159)"/>
<path d="M36.2007 33.1294C36.5407 32.8577 36.8134 32.5217 37.0003 32.1441C37.1872 31.7666 37.284 31.3563 37.284 30.9412C37.284 30.1611 36.9483 29.413 36.3508 28.8615C35.7533 28.3099 34.9428 28 34.0978 28C33.2528 28 32.4424 28.3099 31.8449 28.8615C31.2474 29.413 30.9117 30.1611 30.9117 30.9412C30.9117 31.3563 31.0084 31.7666 31.1953 32.1441C31.3822 32.5217 31.655 32.8577 31.995 33.1294C31.1029 33.5023 30.3461 34.1044 29.815 34.8639C29.2839 35.6233 29.0009 36.5078 29 37.4118C29 37.5678 29.0671 37.7174 29.1866 37.8277C29.3061 37.938 29.4682 38 29.6372 38C29.8062 38 29.9683 37.938 30.0878 37.8277C30.2073 37.7174 30.2745 37.5678 30.2745 37.4118C30.2745 36.4757 30.6773 35.578 31.3943 34.9161C32.1113 34.2542 33.0838 33.8824 34.0978 33.8824C35.1119 33.8824 36.0843 34.2542 36.8014 34.9161C37.5184 35.578 37.9212 36.4757 37.9212 37.4118C37.9212 37.5678 37.9883 37.7174 38.1078 37.8277C38.2273 37.938 38.3894 38 38.5584 38C38.7274 38 38.8895 37.938 39.009 37.8277C39.1285 37.7174 39.1957 37.5678 39.1957 37.4118C39.1947 36.5078 38.9118 35.6233 38.3807 34.8639C37.8495 34.1044 37.0927 33.5023 36.2007 33.1294ZM34.0978 32.7059C33.7197 32.7059 33.3501 32.6024 33.0358 32.4085C32.7214 32.2146 32.4764 31.939 32.3317 31.6165C32.187 31.2941 32.1491 30.9392 32.2229 30.5969C32.2966 30.2546 32.4787 29.9402 32.7461 29.6934C33.0134 29.4466 33.354 29.2785 33.7249 29.2104C34.0957 29.1423 34.4801 29.1773 34.8294 29.3108C35.1787 29.4444 35.4773 29.6706 35.6873 29.9608C35.8974 30.251 36.0095 30.5922 36.0095 30.9412C36.0095 31.4092 35.8081 31.8581 35.4496 32.189C35.0911 32.52 34.6048 32.7059 34.0978 32.7059ZM40.3044 32.8941C40.7122 32.4702 40.9786 31.9465 41.0715 31.3861C41.1644 30.8257 41.0799 30.2524 40.8281 29.7353C40.5763 29.2182 40.1679 28.7793 39.6522 28.4714C39.1365 28.1636 38.5354 27.9999 37.9212 28C37.7522 28 37.5901 28.062 37.4706 28.1723C37.3511 28.2826 37.284 28.4322 37.284 28.5883C37.284 28.7443 37.3511 28.8939 37.4706 29.0042C37.5901 29.1145 37.7522 29.1765 37.9212 29.1765C38.4282 29.1765 38.9145 29.3624 39.273 29.6934C39.6315 30.0243 39.8329 30.4732 39.8329 30.9412C39.832 31.2502 39.7432 31.5535 39.5755 31.8209C39.4078 32.0882 39.1669 32.3102 38.877 32.4647C38.7826 32.515 38.7037 32.5869 38.6479 32.6734C38.5921 32.7599 38.5613 32.8582 38.5584 32.9588C38.5558 33.0587 38.5807 33.1575 38.6309 33.246C38.681 33.3346 38.7548 33.4098 38.8452 33.4647L39.0937 33.6177L39.1765 33.6588C39.9447 33.9951 40.5927 34.5271 41.0442 35.192C41.4958 35.8569 41.7322 36.627 41.7255 37.4118C41.7255 37.5678 41.7926 37.7174 41.9121 37.8277C42.0316 37.938 42.1937 38 42.3627 38C42.5317 38 42.6938 37.938 42.8133 37.8277C42.9328 37.7174 42.9999 37.5678 42.9999 37.4118C43.0051 36.5091 42.7602 35.6202 42.2884 34.8295C41.8167 34.0388 41.1337 33.3726 40.3044 32.8941Z" fill="white"/>
<g filter="url(#filter1_bi_76_159)">
<path fill-rule="evenodd" clip-rule="evenodd" d="M8.24784 35.6381C8.15023 36.2617 8.5771 36.6885 9.20067 36.5909L27.6468 33.7036C28.651 33.5464 29.3422 32.2542 28.7428 31.6548L24.7244 27.6364L38.303 14.0577C39.3208 13.04 39.5431 11.6121 38.7995 10.8686L33.9701 6.03917C33.2266 5.29561 31.7987 5.5179 30.781 6.53565L17.2023 20.1143L13.184 16.096C12.5845 15.4966 11.2924 16.1878 11.1352 17.192L8.24784 35.6381Z" fill="#BCE4F1" fill-opacity="0.5"/>
</g>
<g filter="url(#filter2_bi_76_159)">
<path fill-rule="evenodd" clip-rule="evenodd" d="M64.4951 29.1994C64.5914 28.577 64.1646 28.1502 63.5423 28.2466L45.1333 31.0976C44.1312 31.2528 43.4434 32.5415 44.0428 33.1409L48.061 37.1591L34.5291 50.6909C33.5149 51.7051 33.2954 53.1301 34.0389 53.8736L38.8681 58.7028C39.6116 59.4463 41.0366 59.2268 42.0508 58.2126L55.5826 44.6807L59.6008 48.6989C60.2002 49.2983 61.4889 48.6105 61.6441 47.6083L64.4951 29.1994Z" fill="#BCE4F1" fill-opacity="0.5"/>
</g>
</g>
<defs>
<filter id="filter0_dd_76_159" x="4.23389" y="5.59959" width="64.2747" height="61.5439" filterUnits="userSpaceOnUse" color-interpolation-filters="sRGB">
<feFlood flood-opacity="0" result="BackgroundImageFix"/>
<feColorMatrix in="SourceAlpha" type="matrix" values="0 0 0 0 0 0 0 0 0 0 0 0 0 0 0 0 0 0 127 0" result="hardAlpha"/>
<feOffset dy="4"/>
<feGaussianBlur stdDeviation="2"/>
<feComposite in2="hardAlpha" operator="out"/>
<feColorMatrix type="matrix" values="0 0 0 0 0 0 0 0 0 0 0 0 0 0 0 0 0 0 0.25 0"/>
<feBlend mode="normal" in2="BackgroundImageFix" result="effect1_dropShadow_76_159"/>
<feColorMatrix in="SourceAlpha" type="matrix" values="0 0 0 0 0 0 0 0 0 0 0 0 0 0 0 0 0 0 127 0" result="hardAlpha"/>
<feOffset dy="4"/>
<feGaussianBlur stdDeviation="2"/>
<feComposite in2="hardAlpha" operator="out"/>
<feColorMatrix type="matrix" values="0 0 0 0 0 0 0 0 0 0 0 0 0 0 0 0 0 0 0.25 0"/>
<feBlend mode="normal" in2="effect1_dropShadow_76_159" result="effect2_dropShadow_76_159"/>
<feBlend mode="normal" in="SourceGraphic" in2="effect2_dropShadow_76_159" result="shape"/>
</filter>
<filter id="filter1_bi_76_159" x="4.23389" y="1.59959" width="39.0051" height="39.0052" filterUnits="userSpaceOnUse" color-interpolation-filters="sRGB">
<feFlood flood-opacity="0" result="BackgroundImageFix"/>
<feGaussianBlur in="BackgroundImageFix" stdDeviation="2"/>
<feComposite in2="SourceAlpha" operator="in" result="effect1_backgroundBlur_76_159"/>
<feBlend mode="normal" in="SourceGraphic" in2="effect1_backgroundBlur_76_159" result="shape"/>
<feColorMatrix in="SourceAlpha" type="matrix" values="0 0 0 0 0 0 0 0 0 0 0 0 0 0 0 0 0 0 127 0" result="hardAlpha"/>
<feOffset dx="0.2" dy="0.1"/>
<feGaussianBlur stdDeviation="0.5"/>
<feComposite in2="hardAlpha" operator="arithmetic" k2="-1" k3="1"/>
<feColorMatrix type="matrix" values="0 0 0 0 1 0 0 0 0 1 0 0 0 0 1 0 0 0 0.6 0"/>
<feBlend mode="normal" in2="shape" result="effect2_innerShadow_76_159"/>
</filter>
<filter id="filter2_bi_76_159" x="29.5981" y="24.233" width="38.9104" height="38.9105" filterUnits="userSpaceOnUse" color-interpolation-filters="sRGB">
<feFlood flood-opacity="0" result="BackgroundImageFix"/>
<feGaussianBlur in="BackgroundImageFix" stdDeviation="2"/>
<feComposite in2="SourceAlpha" operator="in" result="effect1_backgroundBlur_76_159"/>
<feBlend mode="normal" in="SourceGraphic" in2="effect1_backgroundBlur_76_159" result="shape"/>
<feColorMatrix in="SourceAlpha" type="matrix" values="0 0 0 0 0 0 0 0 0 0 0 0 0 0 0 0 0 0 127 0" result="hardAlpha"/>
<feOffset dx="0.2" dy="0.1"/>
<feGaussianBlur stdDeviation="0.5"/>
<feComposite in2="hardAlpha" operator="arithmetic" k2="-1" k3="1"/>
<feColorMatrix type="matrix" values="0 0 0 0 1 0 0 0 0 1 0 0 0 0 1 0 0 0 0.6 0"/>
<feBlend mode="normal" in2="shape" result="effect2_innerShadow_76_159"/>
</filter>
<linearGradient id="paint0_linear_76_159" x1="19.4974" y1="27.7627" x2="52.1808" y2="24.1795" gradientUnits="userSpaceOnUse">
<stop stop-color="#2BCCFF"/>
<stop offset="1" stop-color="#9CA0FF"/>
</linearGradient>
</defs>
</svg>
